{"accessors":[{"bufferView":0,"componentType":5126,"count":3263,"max":[8.895901679992676,17.958934783935547,17.922544479370117],"min":[-11.714615821838379,-30.655303955078125,-0.3015510141849518],"normalized":false,"type":"VEC3"},{"bufferView":1,"componentType":5126,"count":3263,"max":[0.9994874000549316,0.9999914169311523,0.9999997615814209,1.0],"min":[-0.9999921917915344,-0.9999861717224121,-0.9999997615814209,-1.0],"normalized":false,"type":"VEC4"},{"bufferView":2,"componentType":5126,"count":3263,"max":[0.9999992251396179,1.0,1.0],"min":[-0.9999794363975525,-1.0,-0.9989056587219238],"normalized":false,"type":"VEC3"},{"bufferView":3,"componentType":5126,"count":3263,"max":[0.9947051405906677,0.9955748915672302],"min":[0.003616388188675046,0.005737392231822014],"normalized":false,"type":"VEC2"},{"bufferView":4,"componentType":5123,"count":12147,"max":[3262],"min":[0],"normalized":false,"type":"SCALAR"},{"bufferView":5,"componentType":5126,"count":12549,"max":[11.667268753051758,27.899555206298828,18.28466033935547],"min":[-9.560873985290527,-32.353084564208984,1.5019299983978271],"normalized":false,"type":"VEC3"},{"bufferView":6,"componentType":5126,"count":12549,"max":[0.9999323487281799,0.9999484419822693,0.9999997019767761,1.0],"min":[-0.9999805092811584,-0.9999988079071045,-0.9999690651893616,-1.0],"normalized":false,"type":"VEC4"},{"bufferView":7,"componentType":5126,"count":12549,"max":[0.9997587203979492,0.9999750852584839,0.9999778270721436],"min":[-0.9997971057891846,-0.9999173283576965,-0.9999249577522278],"normalized":false,"type":"VEC3"},{"bufferView":8,"componentType":5126,"count":12549,"max":[0.9962700009346008,0.9936310052871704],"min":[0.008031000383198261,0.0071070194244384766],"normalized":false,"type":"VEC2"},{"bufferView":9,"componentType":5123,"count":43896,"max":[12548],"min":[0],"normalized":false,"type":"SCALAR"},{"bufferView":10,"componentType":5126,"count":2779,"max":[13.74437141418457,36.88666534423828,21.66046714782715],"min":[-12.208108901977539,-35.39787292480469,-0.13781100511550903],"normalized":false,"type":"VEC3"},{"bufferView":11,"componentType":5126,"count":2779,"max":[0.9992956519126892,0.9997667074203491,0.9990720152854919,1.0],"min":[-0.9999986886978149,-0.9999461770057678,-0.9992934465408325,-1.0],"normalized":false,"type":"VEC4"},{"bufferView":12,"componentType":5126,"count":2779,"max":[0.9988189935684204,0.9994925856590271,0.9999996423721313],"min":[-0.9978201389312744,-0.9999048709869385,-0.997742772102356],"normalized":false,"type":"VEC3"},{"bufferView":13,"componentType":5126,"count":2779,"max":[0.9960479140281677,0.9895017743110657],"min":[0.007400625851005316,0.0049897003918886185],"normalized":false,"type":"VEC2"},{"bufferView":14,"componentType":5123,"count":13968,"max":[2778],"min":[0],"normalized":false,"type":"SCALAR"},{"bufferView":15,"componentType":5126,"count":1406,"max":[5.014854431152344,5.02485466003418,12.184663772583008],"min":[-2.1572930812835693,-27.734086990356445,8.688804626464844],"normalized":false,"type":"VEC3"},{"bufferView":16,"componentType":5126,"count":1406,"max":[1.0,0.9880974888801575,0.1331239640712738,1.0],"min":[-1.0,-0.9880849123001099,-0.9623035788536072,-1.0],"normalized":false,"type":"VEC4"},{"bufferView":17,"componentType":5126,"count":1406,"max":[0.9873069524765015,0.9765619039535522,0.9959273338317871],"min":[-0.9873154163360596,-0.9765703082084656,-0.9835614562034607],"normalized":false,"type":"VEC3"},{"bufferView":18,"componentType":5126,"count":1406,"max":[0.9668170213699341,1.2192269563674927],"min":[0.25033825635910034,0.5946091413497925],"normalized":false,"type":"VEC2"},{"bufferView":19,"componentType":5123,"count":1782,"max":[1405],"min":[0],"normalized":false,"type":"SCALAR"},{"bufferView":20,"componentType":5126,"count":12147,"max":[8.895901679992676,17.958934783935547,17.922544479370117],"min":[-11.714615821838379,-30.655303955078125,-0.3015510141849518],"normalized":false,"type":"VEC3"},{"bufferView":21,"componentType":5123,"count":12147,"max":[12146],"min":[0],"normalized":false,"type":"SCALAR"},{"bufferView":22,"componentType":5126,"count":43896,"max":[11.667268753051758,27.899555206298828,18.28466033935547],"min":[-9.560873985290527,-32.353084564208984,1.5019299983978271],"normalized":false,"type":"VEC3"},{"bufferView":23,"componentType":5123,"count":43896,"max":[43895],"min":[0],"normalized":false,"type":"SCALAR"},{"bufferView":24,"componentType":5126,"count":13968,"max":[13.744370460510254,36.88666534423828,21.66046714782715],"min":[-12.208108901977539,-35.39787292480469,-0.13781100511550903],"normalized":false,"type":"VEC3"},{"bufferView":25,"componentType":5123,"count":13968,"max":[13967],"min":[0],"normalized":false,"type":"SCALAR"},{"bufferView":26,"componentType":5126,"count":1782,"max":[5.014854907989502,5.024853229522705,12.184663772583008],"min":[-2.1572930812835693,-27.734086990356445,8.688804626464844],"normalized":false,"type":"VEC3"},{"bufferView":27,"componentType":5123,"count":1782,"max":[1781],"min":[0],"normalized":false,"type":"SCALAR"}],"asset":{"generator":"Godot Engine v4.6.1.stable.official@14d19694e0c88a3f9e82d899a0400f27a24c176e","version":"2.0"},"bufferViews":[{"buffer":0,"byteLength":39156,"byteStride":12,"target":34962},{"buffer":0,"byteLength":52208,"byteOffset":39156,"byteStride":16,"target":34962},{"buffer":0,"byteLength":39156,"byteOffset":91364,"byteStride":12,"target":34962},{"buffer":0,"byteLength":26104,"byteOffset":130520,"byteStride":8,"target":34962},{"buffer":0,"byteLength":24294,"byteOffset":156624,"target":34963},{"buffer":0,"byteLength":150588,"byteOffset":180920,"byteStride":12,"target":34962},{"buffer":0,"byteLength":200784,"byteOffset":331508,"byteStride":16,"target":34962},{"buffer":0,"byteLength":150588,"byteOffset":532292,"byteStride":12,"target":34962},{"buffer":0,"byteLength":100392,"byteOffset":682880,"byteStride":8,"target":34962},{"buffer":0,"byteLength":87792,"byteOffset":783272,"target":34963},{"buffer":0,"byteLength":33348,"byteOffset":871064,"byteStride":12,"target":34962},{"buffer":0,"byteLength":44464,"byteOffset":904412,"byteStride":16,"target":34962},{"buffer":0,"byteLength":33348,"byteOffset":948876,"byteStride":12,"target":34962},{"buffer":0,"byteLength":22232,"byteOffset":982224,"byteStride":8,"target":34962},{"buffer":0,"byteLength":27936,"byteOffset":1004456,"target":34963},{"buffer":0,"byteLength":16872,"byteOffset":1032392,"byteStride":12,"target":34962},{"buffer":0,"byteLength":22496,"byteOffset":1049264,"byteStride":16,"target":34962},{"buffer":0,"byteLength":16872,"byteOffset":1071760,"byteStride":12,"target":34962},{"buffer":0,"byteLength":11248,"byteOffset":1088632,"byteStride":8,"target":34962},{"buffer":0,"byteLength":3564,"byteOffset":1099880,"target":34963},{"buffer":0,"byteLength":145764,"byteOffset":1103444,"byteStride":12,"target":34962},{"buffer":0,"byteLength":24294,"byteOffset":1249208,"target":34963},{"buffer":0,"byteLength":526752,"byteOffset":1273504,"byteStride":12,"target":34962},{"buffer":0,"byteLength":87792,"byteOffset":1800256,"target":34963},{"buffer":0,"byteLength":167616,"byteOffset":1888048,"byteStride":12,"target":34962},{"buffer":0,"byteLength":27936,"byteOffset":2055664,"target":34963},{"buffer":0,"byteLength":21384,"byteOffset":2083600,"byteStride":12,"target":34962},{"buffer":0,"byteLength":3564,"byteOffset":2104984,"target":34963}],"buffers":[{"byteLength":2108548,"uri":"delete_this_stage10.bin"}],"extensions":{"OMI_physics_shape":{"shapes":[{"trimesh":{"mesh":4},"type":"trimesh"},{"trimesh":{"mesh":5},"type":"trimesh"},{"trimesh":{"mesh":6},"type":"trimesh"},{"trimesh":{"mesh":7},"type":"trimesh"}]}},"extensionsUsed":["GODOT_single_root","OMI_physics_body","OMI_physics_shape"],"images":[{"uri":"textures%2F.png"},{"uri":"textures%2F.png"},{"uri":"textures%2F.png"},{"uri":"textures%2F.png"},{"uri":"textures%2F.png"}],"materials":[{"alphaCutoff":0.009999999776482582,"alphaMode":"MASK","doubleSided":true,"name":"map_2_island1","pbrMetallicRoughness":{"baseColorFactor":[1.0,1.0,1.0,1.0],"baseColorTexture":{"index":0},"metallicFactor":0.0,"roughnessFactor":0.6000000238418579}},{"alphaCutoff":0.009999999776482582,"alphaMode":"MASK","doubleSided":true,"name":"map_2_object1","pbrMetallicRoughness":{"baseColorFactor":[1.0,1.0,1.0,1.0],"baseColorTexture":{"index":1},"metallicFactor":0.0,"roughnessFactor":0.6000000238418579}},{"doubleSided":true,"name":"map_2_terrain1","pbrMetallicRoughness":{"baseColorFactor":[1.0,1.0,1.0,1.0],"baseColorTexture":{"index":2},"metallicFactor":0.0,"roughnessFactor":0.6000000238418579}},{"alphaMode":"BLEND","doubleSided":true,"emissiveFactor":[1.0,1.0,1.0],"emissiveTexture":{"index":4},"name":"map_4lambert5SG","pbrMetallicRoughness":{"baseColorFactor":[1.0,1.0,1.0,1.0],"baseColorTexture":{"index":3},"metallicFactor":0.0,"roughnessFactor":0.6000000238418579}}],"meshes":[{"name":"DeleteThis_Object_0","primitives":[{"attributes":{"NORMAL":2,"POSITION":0,"TANGENT":1,"TEXCOORD_0":3},"indices":4,"material":0,"mode":4}]},{"name":"DeleteThis_Object_1","primitives":[{"attributes":{"NORMAL":7,"POSITION":5,"TANGENT":6,"TEXCOORD_0":8},"indices":9,"material":1,"mode":4}]},{"name":"DeleteThis_Object_2","primitives":[{"attributes":{"NORMAL":12,"POSITION":10,"TANGENT":11,"TEXCOORD_0":13},"indices":14,"material":2,"mode":4}]},{"name":"DeleteThis_Object_3","primitives":[{"attributes":{"NORMAL":17,"POSITION":15,"TANGENT":16,"TEXCOORD_0":18},"indices":19,"material":3,"mode":4}]},{"primitives":[{"attributes":{"POSITION":20},"indices":21,"mode":4}]},{"primitives":[{"attributes":{"POSITION":22},"indices":23,"mode":4}]},{"primitives":[{"attributes":{"POSITION":24},"indices":25,"mode":4}]},{"primitives":[{"attributes":{"POSITION":26},"indices":27,"mode":4}]}],"nodes":[{"children":[1],"name":"DeleteThis"},{"children":[2,3,4,5,6],"name":"SketchfabModel","rotation":[-0.70710688829422,0.0,0.0,0.7071066498756409],"scale":[1.1392714977264404,1.1392714977264404,1.1392714977264404]},{"mesh":0,"name":"Object_2"},{"mesh":1,"name":"Object_3"},{"mesh":2,"name":"Object_4"},{"mesh":3,"name":"Object_5"},{"children":[7,9,11,13],"name":"SketchfabModel-colonly"},{"children":[8],"extensions":{"OMI_physics_body":{"motion":{"type":"static"}}},"name":"Object_22"},{"extensions":{"OMI_physics_body":{"collider":{"shape":0}}},"name":"CollisionShape3D"},{"children":[10],"extensions":{"OMI_physics_body":{"motion":{"type":"static"}}},"name":"Object_32"},{"extensions":{"OMI_physics_body":{"collider":{"shape":1}}},"name":"CollisionShape3D2"},{"children":[12],"extensions":{"OMI_physics_body":{"motion":{"type":"static"}}},"name":"Object_42"},{"extensions":{"OMI_physics_body":{"collider":{"shape":2}}},"name":"CollisionShape3D3"},{"children":[14],"extensions":{"OMI_physics_body":{"motion":{"type":"static"}}},"name":"Object_52"},{"extensions":{"OMI_physics_body":{"collider":{"shape":3}}},"name":"CollisionShape3D4"}],"samplers":[{"magFilter":9729,"minFilter":9987,"wrapS":10497,"wrapT":10497}],"scene":0,"scenes":[{"nodes":[0]}],"textures":[{"sampler":0,"source":0},{"sampler":0,"source":1},{"sampler":0,"source":2},{"sampler":0,"source":3},{"sampler":0,"source":4}]}